<svg width="140" height="26" viewBox="0 0 140 26" fill="none" xmlns="http://www.w3.org/2000/svg">
<path d="M6.14351 19.2555C4.98014 19.2555 3.93232 19.0455 3.00004 18.6254C2.07572 18.1972 1.34265 17.5671 0.800807 16.735C0.266936 15.9029 0 14.8769 0 13.657C0 12.6068 0.191238 11.7383 0.573713 11.0516C0.956188 10.365 1.47811 9.8156 2.13947 9.40359C2.80083 8.99158 3.54586 8.68055 4.37456 8.4705C5.21122 8.25238 6.07578 8.09484 6.96822 7.9979C8.04393 7.8848 8.91645 7.78381 9.58578 7.69495C10.2551 7.598 10.7412 7.45259 11.044 7.2587C11.3547 7.05673 11.5101 6.7457 11.5101 6.32561V6.2529C11.5101 5.34001 11.2432 4.63313 10.7093 4.13225C10.1754 3.63137 9.4065 3.38093 8.4025 3.38093C7.34273 3.38093 6.50208 3.61521 5.88056 4.08378C5.267 4.55234 4.85265 5.10573 4.63751 5.74395L0.597617 5.16228C0.916347 4.03126 1.44225 3.08606 2.17533 2.32666C2.9084 1.55919 3.80483 0.985599 4.86461 0.605902C5.92438 0.218125 7.09571 0.0242368 8.3786 0.0242368C9.26307 0.0242368 10.1436 0.12926 11.0201 0.339305C11.8966 0.54935 12.6974 0.896734 13.4225 1.38145C14.1476 1.8581 14.7293 2.50843 15.1675 3.33246C15.6138 4.15648 15.8369 5.18652 15.8369 6.42255V18.8799H11.6774V16.323H11.534C11.2711 16.84 10.9005 17.3247 10.4224 17.7771C9.95232 18.2215 9.35869 18.581 8.64155 18.8557C7.93237 19.1222 7.09969 19.2555 6.14351 19.2555ZM7.26703 16.0322C8.13557 16.0322 8.88856 15.8585 9.52602 15.5111C10.1635 15.1556 10.6535 14.6871 10.9962 14.1054C11.3468 13.5237 11.5221 12.8895 11.5221 12.2029V10.0095C11.3866 10.1226 11.1555 10.2276 10.8288 10.3246C10.5101 10.4215 10.1515 10.5063 9.75312 10.579C9.3547 10.6517 8.96028 10.7164 8.56983 10.7729C8.17939 10.8295 7.84074 10.8779 7.55388 10.9183C6.90846 11.0072 6.33076 11.1526 5.82079 11.3546C5.31083 11.5566 4.90843 11.8393 4.61361 12.2029C4.31878 12.5583 4.17137 13.0188 4.17137 13.5843C4.17137 14.3922 4.46221 15.0021 5.04389 15.4141C5.62557 15.8261 6.36662 16.0322 7.26703 16.0322Z" fill="black"/>
<path d="M17.9998 18.8799V0.266597H22.195V3.36881H22.3863C22.7209 2.29435 23.2946 1.46628 24.1074 0.884617C24.9281 0.294872 25.8644 0 26.9162 0C27.1553 0 27.4222 0.0121177 27.717 0.0363532C28.0198 0.052511 28.2708 0.0807866 28.47 0.12118V4.15648C28.2867 4.09185 27.9959 4.0353 27.5975 3.98683C27.2071 3.93028 26.8286 3.90201 26.462 3.90201C25.6732 3.90201 24.964 4.0757 24.3345 4.42308C23.713 4.76239 23.2229 5.23499 22.8644 5.84089C22.5058 6.44679 22.3265 7.1456 22.3265 7.93731V18.8799H17.9998Z" fill="black"/>
<path d="M29.1568 18.8799V0.266597H33.3521V3.36881H33.5433C33.878 2.29435 34.4517 1.46628 35.2644 0.884617C36.0852 0.294872 37.0214 0 38.0732 0C38.3123 0 38.5792 0.0121177 38.8741 0.0363532C39.1768 0.052511 39.4278 0.0807866 39.6271 0.12118V4.15648C39.4438 4.09185 39.1529 4.0353 38.7545 3.98683C38.3641 3.93028 37.9856 3.90201 37.6191 3.90201C36.8302 3.90201 36.121 4.0757 35.4915 4.42308C34.87 4.76239 34.38 5.23499 34.0214 5.84089C33.6628 6.44679 33.4835 7.1456 33.4835 7.93731V18.8799H29.1568Z" fill="black"/>
<path d="M45.2681 19.2555C44.1047 19.2555 43.0569 19.0455 42.1246 18.6254C41.2003 18.1972 40.4672 17.5671 39.9254 16.735C39.3915 15.9029 39.1246 14.8769 39.1246 13.657C39.1246 12.6068 39.3158 11.7383 39.6983 11.0516C40.0808 10.365 40.6027 9.8156 41.264 9.40359C41.9254 8.99158 42.6704 8.68055 43.4991 8.4705C44.3358 8.25238 45.2004 8.09484 46.0928 7.9979C47.1685 7.8848 48.041 7.78381 48.7104 7.69495C49.3797 7.598 49.8658 7.45259 50.1685 7.2587C50.4793 7.05673 50.6347 6.7457 50.6347 6.32561V6.2529C50.6347 5.34001 50.3677 4.63313 49.8339 4.13225C49.3 3.63137 48.5311 3.38093 47.5271 3.38093C46.4673 3.38093 45.6266 3.61521 45.0051 4.08378C44.3916 4.55234 43.9772 5.10573 43.7621 5.74395L39.7222 5.16228C40.0409 4.03126 40.5668 3.08606 41.2999 2.32666C42.033 1.55919 42.9294 0.985599 43.9892 0.605902C45.049 0.218125 46.2203 0.0242368 47.5032 0.0242368C48.3876 0.0242368 49.2681 0.12926 50.1446 0.339305C51.0211 0.54935 51.822 0.896734 52.5471 1.38145C53.2722 1.8581 53.8538 2.50843 54.2921 3.33246C54.7383 4.15648 54.9614 5.18652 54.9614 6.42255V18.8799H50.802V16.323H50.6586C50.3956 16.84 50.0251 17.3247 49.547 17.7771C49.0769 18.2215 48.4833 18.581 47.7661 18.8557C47.0569 19.1222 46.2243 19.2555 45.2681 19.2555ZM46.3916 16.0322C47.2601 16.0322 48.0131 15.8585 48.6506 15.5111C49.2881 15.1556 49.7781 14.6871 50.1207 14.1054C50.4713 13.5237 50.6466 12.8895 50.6466 12.2029V10.0095C50.5112 10.1226 50.2801 10.2276 49.9534 10.3246C49.6347 10.4215 49.2761 10.5063 48.8777 10.579C48.4793 10.6517 48.0849 10.7164 47.6944 10.7729C47.304 10.8295 46.9653 10.8779 46.6785 10.9183C46.033 11.0072 45.4553 11.1526 44.9454 11.3546C44.4354 11.5566 44.033 11.8393 43.7382 12.2029C43.4434 12.5583 43.2959 13.0188 43.2959 13.5843C43.2959 14.3922 43.5868 15.0021 44.1685 15.4141C44.7501 15.8261 45.4912 16.0322 46.3916 16.0322Z" fill="black"/>
<path d="M59.1562 25.8599C58.5666 25.8599 58.0208 25.8114 57.5188 25.7145C57.0247 25.6256 56.6303 25.5206 56.3355 25.3994L57.3395 21.9821C57.969 22.1679 58.5307 22.2568 59.0248 22.2487C59.5188 22.2406 59.9531 22.0831 60.3276 21.7761C60.71 21.4772 61.0328 20.9763 61.2957 20.2735L61.6662 19.2677L55.0088 0.266597H59.5985L63.8296 14.3235H64.0208L68.2639 0.266597H72.8656L65.5149 21.1338C65.1722 22.1194 64.7181 22.9637 64.1523 23.6665C63.5866 24.3774 62.8933 24.9187 62.0726 25.2903C61.2598 25.67 60.2877 25.8599 59.1562 25.8599Z" fill="black"/>
<path d="M81.0554 19.2434C79.2228 19.2434 77.649 18.8355 76.3343 18.0195C75.0275 17.2036 74.0195 16.0766 73.3103 14.6386C72.6091 13.1925 72.2585 11.5283 72.2585 9.64595C72.2585 7.75554 72.6171 6.08729 73.3342 4.64121C74.0514 3.18704 75.0633 2.05603 76.3701 1.24816C77.6849 0.43221 79.2387 0.0242368 81.0315 0.0242368C82.5216 0.0242368 83.8403 0.302951 84.9878 0.86038C86.1432 1.40973 87.0635 2.18932 87.7488 3.19916C88.434 4.20092 88.8245 5.37233 88.9201 6.71339H84.7846C84.6172 5.81665 84.2188 5.06938 83.5893 4.47155C82.9678 3.86565 82.1351 3.5627 81.0913 3.5627C80.2068 3.5627 79.4299 3.80506 78.7606 4.28978C78.0913 4.76642 77.5693 5.45311 77.1948 6.34985C76.8283 7.24658 76.645 8.32105 76.645 9.57324C76.645 10.8416 76.8283 11.9322 77.1948 12.8451C77.5614 13.7499 78.0753 14.4487 78.7367 14.9415C79.406 15.4263 80.1909 15.6686 81.0913 15.6686C81.7288 15.6686 82.2985 15.5474 82.8005 15.3051C83.3105 15.0546 83.7368 14.6951 84.0794 14.2266C84.422 13.758 84.6571 13.1885 84.7846 12.5179H88.9201C88.8165 13.8347 88.434 15.0021 87.7727 16.02C87.1113 17.0299 86.2109 17.8216 85.0714 18.3952C83.932 18.9607 82.5933 19.2434 81.0554 19.2434Z" fill="black"/>
<path d="M95.5681 19.2555C94.4047 19.2555 93.3569 19.0455 92.4246 18.6254C91.5003 18.1972 90.7672 17.5671 90.2254 16.735C89.6915 15.9029 89.4246 14.8769 89.4246 13.657C89.4246 12.6068 89.6158 11.7383 89.9983 11.0516C90.3808 10.365 90.9027 9.8156 91.5641 9.40359C92.2254 8.99158 92.9705 8.68055 93.7992 8.4705C94.6358 8.25238 95.5004 8.09484 96.3928 7.9979C97.4685 7.8848 98.341 7.78381 99.0104 7.69495C99.6797 7.598 100.166 7.45259 100.469 7.2587C100.779 7.05673 100.935 6.7457 100.935 6.32561V6.2529C100.935 5.34001 100.668 4.63313 100.134 4.13225C99.6 3.63137 98.8311 3.38093 97.8271 3.38093C96.7673 3.38093 95.9267 3.61521 95.3051 4.08378C94.6916 4.55234 94.2772 5.10573 94.0621 5.74395L90.0222 5.16228C90.3409 4.03126 90.8668 3.08606 91.5999 2.32666C92.333 1.55919 93.2294 0.985599 94.2892 0.605902C95.349 0.218125 96.5203 0.0242368 97.8032 0.0242368C98.6877 0.0242368 99.5682 0.12926 100.445 0.339305C101.321 0.54935 102.122 0.896734 102.847 1.38145C103.572 1.8581 104.154 2.50843 104.592 3.33246C105.038 4.15648 105.261 5.18652 105.261 6.42255V18.8799H101.102V16.323H100.959C100.696 16.84 100.325 17.3247 99.847 17.7771C99.3769 18.2215 98.7833 18.581 98.0661 18.8557C97.357 19.1222 96.5243 19.2555 95.5681 19.2555ZM96.6916 16.0322C97.5602 16.0322 98.3132 15.8585 98.9506 15.5111C99.5881 15.1556 100.078 14.6871 100.421 14.1054C100.771 13.5237 100.947 12.8895 100.947 12.2029V10.0095C100.811 10.1226 100.58 10.2276 100.253 10.3246C99.9347 10.4215 99.5761 10.5063 99.1777 10.579C98.7793 10.6517 98.3849 10.7164 97.9944 10.7729C97.604 10.8295 97.2653 10.8779 96.9785 10.9183C96.333 11.0072 95.7554 11.1526 95.2454 11.3546C94.7354 11.5566 94.333 11.8393 94.0382 12.2029C93.7434 12.5583 93.596 13.0188 93.596 13.5843C93.596 14.3922 93.8868 15.0021 94.4685 15.4141C95.0502 15.8261 95.7912 16.0322 96.6916 16.0322Z" fill="black"/>
<path d="M121.935 5.18652L117.99 5.62276C117.879 5.21883 117.683 4.83913 117.405 4.48367C117.134 4.12821 116.767 3.84142 116.305 3.62329C115.843 3.40517 115.277 3.2961 114.608 3.2961C113.707 3.2961 112.95 3.49403 112.337 3.88989C111.731 4.28574 111.432 4.79874 111.44 5.42888C111.432 5.97015 111.628 6.41044 112.026 6.74974C112.432 7.08905 113.102 7.36776 114.034 7.58589L117.166 8.2645C118.903 8.64419 120.193 9.24606 121.038 10.0701C121.891 10.8941 122.321 11.9726 122.329 13.3056C122.321 14.477 121.982 15.5111 121.313 16.4078C120.652 17.2965 119.731 17.9912 118.552 18.4921C117.373 18.993 116.018 19.2434 114.488 19.2434C112.241 19.2434 110.432 18.7668 109.062 17.8135C107.691 16.8521 106.875 15.5151 106.612 13.8024L110.831 13.3904C111.022 14.2306 111.428 14.8648 112.05 15.293C112.671 15.7211 113.48 15.9352 114.476 15.9352C115.504 15.9352 116.329 15.7211 116.95 15.293C117.58 14.8648 117.895 14.3356 117.895 13.7055C117.895 13.1723 117.691 12.732 117.285 12.3846C116.887 12.0372 116.265 11.7706 115.42 11.5848L112.289 10.9183C110.528 10.5467 109.225 9.92063 108.381 9.04005C107.536 8.15139 107.118 7.02846 107.126 5.67124C107.118 4.52406 107.424 3.53039 108.046 2.6902C108.675 1.84194 109.548 1.18757 110.663 0.727082C111.787 0.258518 113.082 0.0242368 114.548 0.0242368C116.699 0.0242368 118.393 0.488761 119.628 1.41781C120.871 2.34686 121.64 3.60309 121.935 5.18652Z" fill="black"/>
<path d="M131.837 19.2434C129.996 19.2434 128.406 18.8557 127.068 18.0801C125.737 17.2965 124.713 16.1897 123.996 14.7598C123.279 13.3218 122.92 11.6293 122.92 9.6823C122.92 7.76766 123.279 6.08729 123.996 4.64121C124.721 3.18704 125.733 2.05603 127.032 1.24816C128.331 0.43221 129.856 0.0242368 131.609 0.0242368C132.741 0.0242368 133.809 0.210046 134.813 0.581665C135.825 0.945206 136.717 1.51071 137.49 2.27819C138.271 3.04566 138.884 4.02319 139.331 5.21075C139.777 6.39024 140 7.79593 140 9.42783V10.7729H124.952V7.81613H135.853C135.845 6.97594 135.665 6.22867 135.315 5.57429C134.964 4.91184 134.474 4.39077 133.845 4.01107C133.223 3.63137 132.498 3.44152 131.669 3.44152C130.785 3.44152 130.008 3.65964 129.339 4.09589C128.669 4.52406 128.147 5.08957 127.773 5.79242C127.406 6.48718 127.219 7.25062 127.211 8.08273V10.6639C127.211 11.7464 127.406 12.6755 127.797 13.451C128.187 14.2185 128.733 14.8082 129.434 15.2202C130.135 15.6242 130.956 15.8261 131.896 15.8261C132.526 15.8261 133.096 15.7373 133.605 15.5595C134.115 15.3737 134.558 15.1031 134.932 14.7476C135.307 14.3922 135.59 13.9519 135.781 13.4268L139.821 13.8873C139.566 14.9698 139.08 15.915 138.363 16.7229C137.653 17.5227 136.745 18.1447 135.637 18.5891C134.53 19.0253 133.263 19.2434 131.837 19.2434Z" fill="black"/>
</svg>
